<svg xmlns="http://www.w3.org/2000/svg" viewBox="0 0 500 500" style="enable-background:new 0 0 500 500" xml:space="preserve">
    <ellipse style="fill:#f5f5f5" cx="250" cy="431.267" rx="193.89" ry="11.32"/>
    <path style="fill:#e6e6e6" d="M238.395 341.53H45.305a5.71 5.71 0 0 1-5.7-5.71V64.39a5.71 5.71 0 0 1 5.7-5.66h193.09a5.71 5.71 0 0 1 5.71 5.71v271.38a5.71 5.71 0 0 1-5.71 5.71zM45.305 58.93a5.46 5.46 0 0 0-5.45 5.46v271.43a5.46 5.46 0 0 0 5.45 5.46h193.09a5.47 5.47 0 0 0 5.46-5.46V64.39a5.47 5.47 0 0 0-5.46-5.46H45.305zM454.705 341.53h-193.1a5.72 5.72 0 0 1-5.71-5.71V64.39a5.72 5.72 0 0 1 5.71-5.66h193.1a5.71 5.71 0 0 1 5.69 5.66v271.43a5.71 5.71 0 0 1-5.69 5.71zm-193.1-282.6a5.47 5.47 0 0 0-5.46 5.46v271.43a5.47 5.47 0 0 0 5.46 5.46h193.1a5.47 5.47 0 0 0 5.46-5.46V64.39a5.47 5.47 0 0 0-5.46-5.46h-193.1z"/>
    <path style="fill:#f5f5f5" d="m207.749 197.459-1.368 117.574c-4.837 39.109-74.172 70.16-74.172 70.16s-69.334-31.051-74.171-70.16l-1.451-117.574 74.104-24.392 77.058 24.392z"/>
    <path style="fill:#e0e0e0" d="m198.085 204.901-1.193 105.541c-4.219 34.109-64.688 61.19-64.688 61.19s-60.469-27.081-64.688-61.19L66.25 204.901l64.629-21.273 67.206 21.273z"/>
    <path style="fill:none;stroke:#fff;stroke-width:3;stroke-linecap:round;stroke-linejoin:round;stroke-miterlimit:10;stroke-dasharray:0,33" d="m193.837 211.563-1.119 96.884c-3.955 31.976-60.644 57.364-60.644 57.364s-56.689-25.388-60.644-57.364l-1.187-96.884 60.589-19.943 63.005 19.943z"/>
    <path style="fill:#f5f5f5" d="M306.943 157.788h133.385v234.04H306.943z"/>
    <path style="fill:#e0e0e0" d="M316.796 166.986h113.845v224.842H316.796z"/>
    <path style="fill:#fff" d="M319.979 392.83c-.199 0-.399-.04-.58-.12-.18-.07-.34-.18-.48-.32a1.32 1.32 0 0 1-.33-.49c-.07-.18-.11-.369-.11-.569 0-.391.16-.78.44-1.061.34-.35.86-.5 1.35-.41.09.021.191.051.28.08.09.04.18.091.26.141.08.059.16.12.23.189.069.07.13.141.18.23.061.08.1.16.14.26a1.37 1.37 0 0 1 .12.57c0 .2-.04.39-.12.569-.069.181-.18.351-.319.49-.29.281-.66.441-1.061.441zM318.479 354.49c0-.83.67-1.5 1.5-1.5s1.5.67 1.5 1.5c0 .829-.67 1.5-1.5 1.5s-1.5-.671-1.5-1.5zm0-36.83c0-.83.67-1.5 1.5-1.5s1.5.67 1.5 1.5c0 .819-.67 1.5-1.5 1.5s-1.5-.681-1.5-1.5zm0-36.841c0-.829.67-1.5 1.5-1.5s1.5.671 1.5 1.5c0 .83-.67 1.5-1.5 1.5s-1.5-.67-1.5-1.5zm0-36.839c0-.82.67-1.5 1.5-1.5s1.5.68 1.5 1.5c0 .83-.67 1.5-1.5 1.5s-1.5-.67-1.5-1.5zm0-36.83c0-.83.67-1.5 1.5-1.5s1.5.67 1.5 1.5-.67 1.5-1.5 1.5-1.5-.67-1.5-1.5zM319.979 171.81c-.399 0-.79-.16-1.06-.441-.07-.07-.14-.14-.19-.23-.05-.079-.1-.16-.14-.25-.04-.1-.07-.19-.08-.29-.02-.09-.03-.19-.03-.289 0-.39.16-.78.44-1.06.06-.07.14-.13.22-.19.08-.05.17-.1.26-.13a1.465 1.465 0 0 1 1.15 0 1.264 1.264 0 0 1 .49.32c.279.28.439.67.439 1.06a1.409 1.409 0 0 1-.12.579 1.16 1.16 0 0 1-.14.25c-.05.09-.11.16-.18.23a1.505 1.505 0 0 1-1.059.441zM389.88 170.31c0-.83.67-1.5 1.5-1.5s1.5.67 1.5 1.5c0 .829-.67 1.5-1.5 1.5s-1.5-.67-1.5-1.5zm-35.7 0c0-.83.67-1.5 1.5-1.5s1.5.67 1.5 1.5c0 .829-.67 1.5-1.5 1.5s-1.5-.67-1.5-1.5zM427.08 171.81c-.101 0-.191-.01-.29-.03-.1-.02-.19-.05-.28-.08-.09-.04-.18-.09-.26-.14-.08-.06-.16-.12-.23-.191a1.501 1.501 0 0 1 0-2.119c.07-.07.15-.13.23-.18.08-.06.17-.11.26-.14a1.465 1.465 0 0 1 .87-.09c.09.02.18.05.28.09.09.03.17.08.25.14.09.05.159.11.229.18a1.491 1.491 0 0 1 0 2.119 1.556 1.556 0 0 1-.479.331c-.101.03-.19.06-.28.08-.1.02-.2.03-.3.03zM425.58 354.49c0-.83.67-1.5 1.5-1.5s1.5.67 1.5 1.5c0 .829-.67 1.5-1.5 1.5s-1.5-.671-1.5-1.5zm0-36.83c0-.83.67-1.5 1.5-1.5s1.5.67 1.5 1.5c0 .819-.67 1.5-1.5 1.5s-1.5-.681-1.5-1.5zm0-36.841c0-.829.67-1.5 1.5-1.5s1.5.671 1.5 1.5c0 .83-.67 1.5-1.5 1.5s-1.5-.67-1.5-1.5zm0-36.839c0-.83.67-1.5 1.5-1.5s1.5.67 1.5 1.5-.67 1.5-1.5 1.5-1.5-.67-1.5-1.5zm0-36.83c0-.83.67-1.5 1.5-1.5s1.5.67 1.5 1.5-.67 1.5-1.5 1.5-1.5-.67-1.5-1.5zM427.08 392.83a1.5 1.5 0 0 1-1.061-2.561c.07-.069.15-.13.23-.189.08-.05.17-.101.26-.141.09-.029.18-.06.28-.08.189-.04.39-.04.59 0 .09.021.189.051.28.08.09.04.17.091.25.141a1.5 1.5 0 0 1 .67 1.25c0 .399-.15.779-.441 1.059a1.49 1.49 0 0 1-1.058.441z"/>
    <path style="fill:#e0e0e0" d="M53.79 392.21H95v.25H53.79zM137.67 390.21H179v.25h-41.33zM222.78 390.21h10v.25h-10zM86.58 398.75h46.25v.25H86.58zM271.2 392.08h21.6v.25h-21.6zM301.7 392.08h27.93v.25H301.7zM401.89 396.31h62.44v.25h-62.44z"/>
    <path style="fill:#ebebeb" d="M233.41 87.652h-46.065l2.512-28.712h46.065z"/>
    <path style="fill:#fafafa" d="m234.344 55.04-1.26 14.994-1.26 18.015h-44.307l2.519-33.009z"/>
    <path style="fill:#e0e0e0" d="m230.106 58.944 2.512 28.71h-46.063l-2.511-28.71h3.916l1.364-2.159h12.41l1.777 2.159z"/>
    <path style="fill:#ebebeb" d="M255.791 94.063h49.016v49.016h-49.016z"/>
    <path style="fill:#e0e0e0" d="M304.807 94.063h1.249v49.016h-1.249z"/>
    <path style="fill:#f5f5f5" d="M260.315 98.596h39.96v39.96h-39.96z"/>
    <path style="fill:#e0e0e0" d="M260.324 98.596h.366v39.96h-.366z"/>
    <ellipse style="fill:#e0e0e0" cx="280.671" cy="114.428" rx="7.791" ry="9.925"/>
    <path transform="rotate(-180 280.704 125.26)" style="fill:#e0e0e0" d="M276.598 121.155h8.211v8.211h-8.211z"/>
    <path style="fill:#e0e0e0" d="M265.395 138.556h30.082v-2.796a9.64 9.64 0 0 0-9.64-9.64h-10.803a9.64 9.64 0 0 0-9.64 9.64v2.796zM264.64 121.878c0 1.636 2.962 2.962 2.962 2.962s2.962-1.326 2.962-2.962c0-.776-1.089-1.214-1.79-1.015-.777.221-1.172 1.129-1.172 1.129s-.732-.97-1.468-1.204c-.745-.237-1.494.267-1.494 1.09zM291.256 114.591c0 2.148 3.89 3.89 3.89 3.89s3.89-1.742 3.89-3.89c0-1.018-1.431-1.594-2.35-1.332-1.02.29-1.54 1.482-1.54 1.482s-.961-1.273-1.928-1.581c-.978-.311-1.962.351-1.962 1.431z"/>
    <path style="fill:#f5f5f5" d="M205.711 359.323c.457 2.889 2.549 5.381 2.712 8.301.127 2.283-.946 4.439-1.471 6.664-.525 2.226-.276 5 1.683 6.179 1.357.818 3.162.566 4.511-.265 1.349-.831 2.321-2.15 3.156-3.497a32.452 32.452 0 0 0 4.848-16.472c.041-2.458-.248-5.055-1.693-7.043-4.496-6.184-14.885-1.068-13.746 6.133zM202.042 351.675c.414.477.999.784 1.61.942.761.196 1.662.136 2.208-.429.519-.537.576-1.366.501-2.109-.092-.911-.349-1.83-.907-2.556s-1.455-1.231-2.368-1.156c-.913.075-1.773.824-1.819 1.738-.05.982.115 2.81.775 3.57z"/>
    <path style="fill:#f5f5f5" d="M210.312 345.662c-.501-.68-1.225-.999-1.945-.853-.707.144-1.358.801-1.441 1.543a5.79 5.79 0 0 0-.033.729c.006.377.037.786.127 1.167.1.42.274.798.513 1.034.339.336.781.547 1.246.635.579.109 1.249.021 1.666-.412.437-.455.549-1.125.527-1.748-.026-.741-.218-1.496-.66-2.095zM214.944 345.408c-.496-.706-1.135-.89-1.751-.662-.59.218-1.119.857-1.239 1.514a4.868 4.868 0 0 0-.074.659c-.014.346-.008.717.074 1.065.088.374.269.709.513.91.299.245.66.386 1.038.419.471.04.997-.082 1.337-.438.404-.425.577-1.014.601-1.591.029-.652-.118-1.334-.499-1.876zM219.071 346.371c-.489-.733-1.046-.783-1.557-.47-.473.289-.885.913-1.036 1.487a4.096 4.096 0 0 0-.114.589c-.035.315-.052.649.021.964.076.328.259.625.513.785.254.16.539.226.831.203a1.58 1.58 0 0 0 1.008-.463 2.62 2.62 0 0 0 .675-1.435c.079-.568-.019-1.178-.341-1.66zM219.883 350.417c-.051.239-.081.489-.027.728.055.239.207.466.434.558.388.158.814-.117 1.099-.423.287-.308.525-.671.632-1.078.107-.407.071-.862-.153-1.218-.91-1.451-1.831.719-1.985 1.433zM220.692 426.11c.671-2.365 1.058-4.949.172-7.242-2.757-7.131-14.112-4.854-14.859 2.398l14.687 4.844zM204.422 412.933c.278.567.764 1.014 1.314 1.323.685.385 1.571.559 2.244.153.639-.385.908-1.173 1.026-1.91.145-.904.132-1.858-.221-2.703-.353-.845-1.09-1.563-1.992-1.725-.901-.162-1.925.341-2.205 1.213-.299.936-.609 2.745-.166 3.649z"/>
    <path style="fill:#f5f5f5" d="M213.959 409.245c-.31-.786-.927-1.281-1.661-1.324-.72-.042-1.518.425-1.789 1.121-.08.206-.157.447-.219.696a5.555 5.555 0 0 0-.177 1.16c-.011.431.061.841.23 1.131a2.39 2.39 0 0 0 1.042.933c.532.254 1.202.341 1.716.029.539-.328.82-.946.958-1.555.164-.72.173-1.498-.1-2.191zM218.5 410.189c-.299-.809-.868-1.151-1.522-1.089-.626.06-1.301.541-1.586 1.146a4.644 4.644 0 0 0-.24.618c-.102.331-.192.691-.202 1.049-.011.384.078.755.262 1.011.226.314.539.543.896.671.445.16.984.177 1.404-.08.5-.307.818-.833.989-1.384.195-.624.229-1.321-.001-1.942zM222.242 412.178c-.285-.834-.809-1.025-1.384-.854-.531.158-1.09.655-1.383 1.171a4.192 4.192 0 0 0-.262.54c-.115.296-.217.613-.227.937-.01.337.09.671.295.891.204.22.463.356.751.409.357.065.767.013 1.093-.188.461-.286.813-.72 1.02-1.213.222-.529.285-1.144.097-1.693zM221.989 416.297c-.111.218-.204.452-.213.697-.008.245.08.503.276.651.334.252.817.096 1.171-.127.356-.224.68-.514.888-.88.208-.366.29-.815.165-1.217-.509-1.635-1.956.225-2.287.876zM181.275 383.664c.361 2.903-.959 5.876-.307 8.727.51 2.229 2.138 4.003 3.259 5.996 1.121 1.993 1.649 4.728.094 6.404-1.078 1.161-2.882 1.419-4.408.994-1.527-.425-2.825-1.423-4.001-2.486a32.445 32.445 0 0 1-9.219-14.485c-.72-2.35-1.162-4.926-.323-7.237 2.606-7.187 14.005-5.148 14.905 2.087zM182.683 375.299c-.266.573-.743 1.03-1.286 1.351-.677.4-1.559.591-2.24.2-.647-.372-.932-1.154-1.066-1.888-.164-.901-.171-1.855.164-2.707.336-.852 1.057-1.585 1.955-1.766.898-.181 1.932.301 2.23 1.167.319.928.666 2.73.243 3.643z"/>
    <path style="fill:#f5f5f5" d="M173.07 371.811c.293-.792.9-1.299 1.633-1.358.719-.057 1.526.393 1.812 1.083.085.205.166.443.234.691.098.364.182.766.201 1.156.02.431-.043.842-.207 1.135a2.392 2.392 0 0 1-1.022.955c-.526.265-1.194.366-1.715.065-.546-.316-.839-.929-.99-1.534-.179-.716-.204-1.494.054-2.193zM168.55 372.85c.282-.815.844-1.169 1.499-1.121.627.046 1.312.514 1.61 1.112.097.195.185.407.253.613.109.329.206.687.224 1.044.019.384-.062.756-.241 1.016-.22.319-.527.554-.882.69-.441.169-.98.197-1.406-.05-.506-.296-.835-.815-1.018-1.363-.208-.619-.255-1.315-.039-1.941zM164.851 374.918c.267-.84.788-1.042 1.366-.883.534.147 1.103.632 1.407 1.142.11.185.205.37.273.534.121.293.23.609.247.932.017.337-.076.672-.276.897a1.342 1.342 0 0 1-.742.425 1.582 1.582 0 0 1-1.097-.165 2.623 2.623 0 0 1-1.046-1.191c-.233-.525-.309-1.138-.132-1.691zM165.19 379.03c.116.216.214.448.227.692.014.245-.07.505-.262.656-.329.259-.815.113-1.173-.102-.361-.217-.691-.499-.906-.861-.215-.362-.307-.808-.19-1.213.473-1.645 1.959.185 2.304.828z"/>
    <path style="fill:#e0e0e0" d="M156.732 143.587c-6.417.896-12.367-3.597-13.263-10.014-.896-6.418 3.597-12.368 10.014-13.264 6.418-.896 12.368 3.597 13.264 10.015.896 6.418-3.597 12.368-10.015 13.263zm-2.385-17.092a5.513 5.513 0 0 0-4.692 6.215 5.512 5.512 0 0 0 6.215 4.692 5.513 5.513 0 0 0 4.693-6.215 5.514 5.514 0 0 0-6.216-4.692z"/>
    <path transform="rotate(-7.946 152.117 111.46)" style="fill:#e0e0e0" d="M149.861 97.092h4.461v28.69h-4.461z"/>
    <path transform="rotate(-7.946 152.154 96.07)" style="fill:#e0e0e0" d="M147.936 93.818h8.374v4.461h-8.374z"/>
    <path transform="rotate(-7.946 153.189 101.707)" style="fill:#e0e0e0" d="M149.233 99.46h7.874v4.461h-7.874z"/>
    <path transform="rotate(-7.946 154.81 109.642)" style="fill:#e0e0e0" d="M151.36 107.397h6.873v4.461h-6.873z"/>
    <ellipse transform="rotate(-46.251 128.441 225.05)" style="fill:#407bff" cx="128.439" cy="225.056" rx="24.135" ry="26.341"/>
    <g style="opacity:.8">
        <ellipse transform="rotate(-46.251 128.441 225.05)" style="fill:#fff" cx="128.439" cy="225.056" rx="24.135" ry="26.341"/>
    </g>
    <path style="fill:#407bff" d="M116.691 209.24a1 1 0 0 1-.597-1.803c3.174-2.356 7.172-3.602 11.562-3.602h.015a1 1 0 0 1-.001 2h-.014c-3.958 0-7.543 1.109-10.37 3.207a.985.985 0 0 1-.595.198zM121.421 243.643a.992.992 0 0 1-.471-.119c-6.199-3.319-10.537-9.218-11.9-16.183-1.228-6.27.235-12.477 4.013-17.031a1 1 0 0 1 1.539 1.277c-3.393 4.089-4.701 9.691-3.589 15.369 1.247 6.374 5.214 11.769 10.881 14.804a1 1 0 0 1-.473 1.883zM131.43 246.251c-2.157 0-4.372-.351-6.588-1.065a1 1 0 0 1 .613-1.903c6.15 1.98 12.294.879 16.847-3.027 4.642-3.981 6.8-10.186 5.773-16.598a1 1 0 0 1 1.975-.317c1.138 7.104-1.272 13.994-6.446 18.432-3.441 2.953-7.68 4.478-12.174 4.478zM148.25 221.118a1 1 0 0 1-.952-.694c-1.843-5.727-6.171-10.548-11.576-12.896a1 1 0 1 1 .796-1.834c5.925 2.574 10.667 7.852 12.684 14.118a1 1 0 0 1-.952 1.306z"/>
    <path style="fill:#407bff" d="M132.488 206.401c-.076 0-.154-.009-.231-.027a20.06 20.06 0 0 0-4.588-.539 1 1 0 0 1 .001-2h.001c1.694.001 3.393.201 5.047.592a1 1 0 0 1-.23 1.974zM114.851 230.294a1 1 0 0 1-.938-.655c-1.878-5.106-1.239-10.493 1.753-14.78 2.866-4.107 7.431-6.463 12.522-6.463h.003a1 1 0 1 1 0 2h-.003c-4.429 0-8.395 2.044-10.883 5.608-2.612 3.743-3.164 8.461-1.516 12.945a1 1 0 0 1-.938 1.345zM130.713 241.71h-.01c-5.806-.059-11.688-3.384-14.987-8.471a.999.999 0 1 1 1.678-1.088c2.944 4.54 8.176 7.506 13.329 7.559a1 1 0 0 1-.01 2z"/>
    <path style="fill:#407bff" d="M134.446 241.277a1 1 0 0 1-.241-1.97c8.111-2.02 10.211-9.11 9.545-14.567-.869-7.121-6.494-14.334-15.562-14.344a1 1 0 1 1 .001-2h.001c10.23.011 16.569 8.109 17.545 16.102 1.008 8.253-3.329 14.829-11.048 16.751a1.037 1.037 0 0 1-.241.028z"/>
    <path style="fill:#407bff" d="M124.105 215.919a1 1 0 0 1-.421-1.908 11.667 11.667 0 0 1 4.865-1.056 1 1 0 1 1 0 2 9.64 9.64 0 0 0-4.025.871.996.996 0 0 1-.419.093zM130.526 237.052c-5.034 0-9.677-3.069-11.905-7.906-2.073-4.501-1.466-9.216 1.624-12.611a1 1 0 0 1 1.478 1.346c-2.531 2.783-3.012 6.681-1.285 10.429 1.947 4.228 6.061 6.874 10.407 6.738 3.533-.109 6.471-2.04 7.858-5.165 1.573-3.543.865-7.729-1.848-10.922a1 1 0 1 1 1.523-1.295c3.216 3.785 4.04 8.777 2.152 13.029-1.707 3.844-5.306 6.219-9.624 6.352-.126.003-.253.005-.38.005z"/>
    <path style="fill:#407bff" d="M134.744 216.798a.997.997 0 0 1-.537-.157c-1.727-1.102-3.684-1.685-5.658-1.686a1 1 0 1 1 0-2c2.356.001 4.685.692 6.734 2a1 1 0 0 1-.539 1.843zM130.028 232.54c-2.308 0-4.539-1.033-6.113-2.904-1.978-2.352-2.436-5.474-1.191-8.147 1.157-2.486 3.499-3.971 6.265-3.973a1 1 0 1 1 0 2c-1.967.001-3.631 1.054-4.451 2.816-.912 1.96-.563 4.266.909 6.017 1.505 1.789 3.793 2.564 5.977 2.02 1.855-.461 3.197-1.82 3.588-3.634a1 1 0 1 1 1.956.421c-.556 2.578-2.447 4.504-5.061 5.154a7.855 7.855 0 0 1-1.879.23z"/>
    <path style="fill:#407bff" d="M135.817 224.623c-.426 0-.82-.275-.954-.702-.798-2.549-3.268-4.402-5.876-4.405a1 1 0 1 1 .001-2h.001c3.458.004 6.731 2.447 7.782 5.808a1.002 1.002 0 0 1-.954 1.299zM130.267 228.381a1 1 0 0 1-.026-1.999c.91-.024 1.046-.675 1.046-1.062 0-.59-.385-1.479-1.444-1.507a1.106 1.106 0 0 0-.779.352c-.204.223-.302.525-.28.873a1 1 0 0 1-1.997.121c-.054-.889.23-1.721.802-2.344.568-.621 1.369-.976 2.253-1 2.257.059 3.445 1.851 3.445 3.506 0 1.755-1.23 3.013-2.991 3.061l-.029-.001z"/>
    <path style="fill:#407bff" d="M156.038 225.053c1.219 13.93-9.084 25.22-23.014 25.22-.36 0-.721-.01-1.082-.03 13.26-.68 22.886-11.7 21.706-25.19-1.179-13.48-12.734-24.5-26.113-25.18.358-.02.717-.03 1.077-.03 13.931 0 26.208 11.29 27.426 25.21z"/>
    <g style="opacity:.4;enable-background:new">
        <path style="fill:#fff" d="M156.038 225.053c1.219 13.93-9.084 25.22-23.014 25.22-.36 0-.721-.01-1.082-.03 13.26-.68 22.886-11.7 21.706-25.19-1.179-13.48-12.734-24.5-26.113-25.18.358-.02.717-.03 1.077-.03 13.931 0 26.208 11.29 27.426 25.21z"/>
    </g>
    <path style="fill:#407bff" d="M176.415 102.142c.026.3.072.6.128.89.369 1.93 1.401 3.67 2.815 4.97 1.631 1.5 3.783 2.43 6.073 2.43h84.49c4.28 0 7.517-3.24 7.592-7.4a8.35 8.35 0 0 0-.028-.89c-.2-2.28-1.312-4.36-2.942-5.85-1.631-1.5-3.783-2.43-6.073-2.43h-84.49c-4.579 0-7.965 3.71-7.565 8.28z"/>
    <path style="opacity:.8;fill:#fff" d="M176.415 102.142c.026.3.072.6.128.89.369 1.93 1.401 3.67 2.815 4.97 1.631 1.5 3.783 2.43 6.073 2.43h84.49c4.28 0 7.517-3.24 7.592-7.4a8.35 8.35 0 0 0-.028-.89c-.2-2.28-1.312-4.36-2.942-5.85-1.631-1.5-3.783-2.43-6.073-2.43h-84.49c-4.579 0-7.965 3.71-7.565 8.28z"/>
    <path style="fill:#407bff" d="M277.51 103.03c0 .27-.02.54-.06.8-.26-2.16-1.35-4.12-2.91-5.54-1.63-1.5-3.78-2.43-6.07-2.43l-89.85.14c1.35-1.33 3.23-2.14 5.36-2.14h84.49c2.29 0 4.44.93 6.07 2.43 1.63 1.49 2.75 3.57 2.95 5.85.02.3.03.6.02.89z"/>
    <path style="opacity:.5;fill:#fff;enable-background:new" d="M277.51 103.03c0 .27-.02.54-.06.8-.26-2.16-1.35-4.12-2.91-5.54-1.63-1.5-3.78-2.43-6.07-2.43l-89.85.14c1.35-1.33 3.23-2.14 5.36-2.14h84.49c2.29 0 4.44.93 6.07 2.43 1.63 1.49 2.75 3.57 2.95 5.85.02.3.03.6.02.89z"/>
    <path style="fill:#407bff" d="m262.961 97.857.354 4.042 3.763-1.403.894 1.995-3.846 1.276 2.761 3.391-1.723 1.277-2.692-3.524-2.039 3.524-1.893-1.277 2.132-3.391-4.033-1.276.543-1.983 4.043 1.352-.35-4.003h2.086zM239.854 97.857l.354 4.042 3.763-1.403.894 1.995-3.846 1.276 2.761 3.391-1.723 1.277-2.692-3.524-2.039 3.524-1.893-1.277 2.132-3.391-4.033-1.276.543-1.983 4.043 1.352-.35-4.003h2.086zM216.747 97.857l.354 4.042 3.763-1.403.894 1.995-3.846 1.276 2.761 3.391-1.723 1.277-2.692-3.524-2.039 3.524-1.893-1.277 2.132-3.391-4.033-1.276.543-1.983 4.043 1.352-.35-4.003h2.086zM193.64 97.857l.354 4.042 3.763-1.403.894 1.995-3.846 1.276 2.761 3.391-1.723 1.277-2.692-3.524-2.039 3.524-1.893-1.277 2.132-3.391-4.033-1.276.543-1.983 4.043 1.352-.35-4.003h2.086zM245.707 89.942h3.937v1h-3.937zM253.729 89.942h12.854v1h-12.854z"/>
    <path style="opacity:.8;fill:#407bff" d="m397.791 127.244-4.092 46.77a5.916 5.916 0 0 1-1.709 3.65c-1.101 1.15-2.644 1.87-4.294 1.87h-32.47c-1.2 0-2.277-.38-3.119-1.04-1.313-.99-2.08-2.63-1.918-4.48l4.092-46.77c.267-3.05 2.953-5.52 6.003-5.52h32.47c3.05 0 5.304 2.47 5.037 5.52z"/>
    <path style="opacity:.8;fill:#fff" d="m397.791 127.244-4.092 46.77a5.916 5.916 0 0 1-1.709 3.65c-1.101 1.15-2.644 1.87-4.294 1.87h-32.47c-1.2 0-2.277-.38-3.119-1.04-1.313-.99-2.08-2.63-1.918-4.48l4.092-46.77c.267-3.05 2.953-5.52 6.003-5.52h32.47c3.05 0 5.304 2.47 5.037 5.52z"/>
    <path style="fill:#407bff" d="M357.279 134.776a1 1 0 0 1-.997-1.087l.374-4.277a1 1 0 0 1 .996-.913h4.515a1 1 0 1 1 0 2h-3.599l-.294 3.364a1 1 0 0 1-.995.913zM393.639 134.776a1 1 0 0 1-.997-1.087l.279-3.19h-3.424a1 1 0 1 1 0-2h4.515a1.002 1.002 0 0 1 .996 1.087l-.374 4.277a1 1 0 0 1-.995.913zM358.97 167.053h-4.516a.999.999 0 0 1-.996-1.088l.375-4.277a1 1 0 1 1 1.992.174l-.279 3.19h3.424a1 1 0 1 1 0 2.001zM390.814 167.053h-4.515a1 1 0 1 1 0-2h3.599l.294-3.364c.049-.55.552-.963 1.083-.909a1 1 0 0 1 .909 1.083l-.374 4.277a1 1 0 0 1-.996.913z"/>
    <ellipse transform="rotate(-75.54 374.627 147.63)" style="fill:#fff" cx="374.61" cy="147.628" rx="16.37" ry="13.158"/>
    <path style="fill:#fff" d="M378.549 172.528h-12.95l1.133-12.951h12.95z"/>
    <path style="fill:#fff" d="M393.699 174.014a5.916 5.916 0 0 1-1.709 3.65c-1.101 1.15-2.644 1.87-4.294 1.87h-32.47c-1.2 0-2.277-.38-3.119-1.04-1.313-.99-2.08-2.63-1.918-4.48 0 0 14.923-4.72 16.763-4.72h11.53l15.217 4.72z"/>
    <path transform="rotate(-85.296 399.387 150.127)" style="fill:#407bff" d="M390.169 149.617h18.434v.999h-18.434z"/>
    <path transform="rotate(-85.296 401.05 134.347)" style="fill:#407bff" d="M399.239 133.837h3.621v.999h-3.621z"/>
    <path style="fill:#407bff" d="M361.94 244.07h3.938v1h-3.938zM369.963 244.07h12.854v1h-12.854z"/>
    <path style="fill:#407bff" d="m406.331 226.997-2.494 28.505c-.225 2.569-2.49 4.652-5.059 4.652s-4.469-2.083-4.245-4.652l2.494-28.505c.805-9.205-6.028-16.7-15.234-16.7h-10.198c-9.205 0-17.35 7.495-18.156 16.7l-1.018 11.64h-9.304l1.018-11.64c1.254-14.338 13.941-26.003 28.273-26.003h10.198c14.335 0 24.98 11.665 23.725 26.003z"/>
    <g style="opacity:.5;enable-background:new">
        <path style="fill:#fff" d="m406.331 226.997-2.494 28.505c-.225 2.569-2.49 4.652-5.059 4.652s-4.469-2.083-4.245-4.652l2.494-28.505c.805-9.205-6.028-16.7-15.234-16.7h-10.198c-9.205 0-17.35 7.495-18.156 16.7l-1.018 11.64h-9.304l1.018-11.64c1.254-14.338 13.941-26.003 28.273-26.003h10.198c14.335 0 24.98 11.665 23.725 26.003z"/>
    </g>
    <path style="fill:#407bff" d="m407.004 254.458-4.859 55.537c-.307 3.515-3.399 6.358-6.914 6.358h-55.537c-3.509 0-6.109-2.843-5.801-6.358l4.859-55.537c.198-2.269 1.567-4.264 3.453-5.386a6.76 6.76 0 0 1 3.46-.972h55.537c1.204 0 2.296.336 3.202.91 1.749 1.117 2.802 3.138 2.6 5.448z"/>
    <path style="fill:#fff" d="m349.248 278.717 14.428 22.214 47.592-47.592c.418-.418-.158-1.069-.624-.704l-45.355 35.55-8.565-13.81-7.476 4.342z"/>
    <path style="fill:#407bff" d="M121.957 171.305H85.815c-3.393 0-6.385-2.751-6.682-6.145l-3.162-36.142c-.297-3.393 2.213-6.144 5.607-6.144h36.142c3.394 0 6.385 2.751 6.682 6.144l3.162 36.142c.297 3.394-2.213 6.145-5.607 6.145z"/>
    <path style="opacity:.8;fill:#fff" d="M121.957 171.305H85.815c-3.393 0-6.385-2.751-6.682-6.145l-3.162-36.142c-.297-3.393 2.213-6.144 5.607-6.144h36.142c3.394 0 6.385 2.751 6.682 6.144l3.162 36.142c.297 3.394-2.213 6.145-5.607 6.145z"/>
    <path style="fill:#fff" d="M79.151 150.73s12.839-17.889 22.311-17.43c9.472.458 25.177 17.008 25.177 17.008s-23.173 12.166-47.488.422z"/>
    <path style="fill:#263238" d="m79.558 151.021-.813-.583c.523-.73 12.777-17.648 22.356-17.648.129 0 .257.003.385.009 9.562.463 24.868 16.482 25.515 17.164l-.725.688c-.156-.164-15.676-16.41-24.839-16.854a7.687 7.687 0 0 0-.341-.008c-9.066.002-21.413 17.058-21.538 17.232z"/>
    <path style="fill:#263238" d="M77.816 151.359c-1.937 0-4.452-.72-5.343-3.461a.5.5 0 0 1 .951-.309c1.148 3.538 5.443 2.689 5.625 2.651a.499.499 0 1 1 .203.979c-.401.084-.896.14-1.436.14zM85.445 143.679a.505.505 0 0 1-.305-.103c-.15-.116-3.698-2.86-4.604-5.646a.501.501 0 0 1 .321-.63.502.502 0 0 1 .63.321c.809 2.488 4.227 5.134 4.262 5.161a.5.5 0 0 1-.304.897zM92.795 136.869h-.011a.5.5 0 0 1-.489-.511c.014-.641-1.576-4.827-2.175-6.403-.251-.66-.43-1.133-.468-1.26a.501.501 0 0 1 .957-.29c.036.12.208.569.445 1.195 1.394 3.669 2.255 6.084 2.24 6.78a.499.499 0 0 1-.499.489zM101.461 133.8a.5.5 0 0 1-.497-.456l-.704-8.054a.5.5 0 0 1 .454-.542.489.489 0 0 1 .542.455l.704 8.054a.5.5 0 0 1-.454.542l-.045.001zM128.138 150.814c-.81 0-1.407-.115-1.46-.126a.5.5 0 0 1 .196-.981c.024.004 2.441.468 3.942-.588.637-.449 1.012-1.098 1.145-1.983a.5.5 0 0 1 .988.149c-.173 1.156-.698 2.049-1.561 2.655-1.009.709-2.282.874-3.25.874zM119.16 143.147a.5.5 0 0 1-.332-.875c.03-.026 2.957-2.646 3.326-5.103a.5.5 0 0 1 .988.149c-.422 2.817-3.52 5.586-3.651 5.703a.498.498 0 0 1-.331.126zM110.708 137.337a.5.5 0 0 1-.494-.584c.011-.064 1.098-6.494 1.295-7.81a.5.5 0 0 1 .988.149c-.198 1.324-1.286 7.763-1.297 7.828a.5.5 0 0 1-.492.417z"/>
    <ellipse transform="rotate(-46.251 102.457 144.626)" style="fill:#407bff" cx="102.453" cy="144.629" rx="10.844" ry="11.835"/>
    <path style="opacity:.3" d="M107.136 144.628c.018-.25.016-.5-.007-.76-.233-2.66-2.581-4.81-5.241-4.81-2.65 0-4.622 2.15-4.389 4.81.023.26.065.51.136.76h-6.51c-.548-6.26 4.079-11.33 10.339-11.33 6.25 0 11.774 5.07 12.321 11.33h-6.649z"/>
    <path style="opacity:.7" d="M107.129 143.868c.023.26.025.51.007.76-.169 2.3-2.006 4.05-4.406 4.05-2.39 0-4.533-1.75-5.094-4.05-.072-.25-.114-.5-.136-.76-.233-2.66 1.739-4.81 4.389-4.81 2.659 0 5.007 2.15 5.24 4.81z"/>
    <path style="opacity:.7;fill:#fff" d="M109.743 139.148c.189 2.166-1.413 3.921-3.578 3.921-2.166 0-4.075-1.756-4.264-3.921-.19-2.166 1.412-3.921 3.578-3.921 2.165-.001 4.074 1.755 4.264 3.921z"/>
    <path style="fill:#407bff" d="M90.319 118.384h3.938v1h-3.938zM98.342 118.384h12.853v1H98.342z"/>
    <path style="fill:#ffb573" d="m275.976 191.65.346.411.46.528c.33.35.649.72 1.009 1.062.688.722 1.439 1.417 2.198 2.134a58.53 58.53 0 0 0 4.775 3.949c1.689 1.252 3.464 2.409 5.249 3.547.97.538 1.818 1.109 2.759 1.626l2.173 1.201c.315.14.669.161.998.059.697-.208 4.72-4.189 6-5.663 2.836-3.254 7.141-7.528 9.455-11.171l2.64 3.571a58.596 58.596 0 0 1-6.469 12.64 28.456 28.456 0 0 1-5.096 5.709 14.346 14.346 0 0 1-3.926 2.352 9.437 9.437 0 0 1-5.675.425 8.929 8.929 0 0 1-1.434-.476l-.898-.394-1.619-.737c-1.093-.486-2.141-1.058-3.202-1.592a65.467 65.467 0 0 1-6.16-3.731 62.694 62.694 0 0 1-5.746-4.458 38.327 38.327 0 0 1-2.672-2.583 33.909 33.909 0 0 1-1.289-1.409l-.626-.758c-.224-.284-.392-.494-.707-.923l7.457-5.319z"/>
    <path style="fill:#ffb573" d="m311.037 189.882 4.643-9.92 4.429 7.936s-2.908 5.011-6.069 5.004l-3.003-3.02zM320.902 175.844l4.683 6.017-5.476 6.027-4.429-7.926z"/>
    <path style="fill:#407bff" d="M319.273 190.63h7.366c.432 0 .792-.33.83-.76l1.546-17.669a.833.833 0 0 0-.83-.906h-7.366a.833.833 0 0 0-.83.76l-1.546 17.669a.834.834 0 0 0 .83.906z"/>
    <path style="opacity:.3;fill:#fff" d="M319.347 188.858h7.382l1.382-15.792h-7.382z"/>
    <path style="fill:#ffb573" d="m318.872 186.623 1.312-.674a8.128 8.128 0 0 0 1.824-1.279l.242-.875a1.245 1.245 0 0 0-1.395-.561l-1.089.296-5.404.411-.135 2.276 1.578 2.447.548.021a2.453 2.453 0 0 0 2.519-2.062z"/>
    <path style="fill:#263238" d="M266.565 181.955c3.747-.68 30.198 22.256 30.198 22.256l-7.842 11.499s-28.924-20.139-28.035-25.005c.921-5.064.21-7.751 5.679-8.75z"/>
    <path style="opacity:.2;enable-background:new" d="m269.898 189.331-.288 12.039a6088.264 6088.264 0 0 0 13.844 10.642l-13.556-22.681z"/>
    <path style="fill:#ffb573" d="m248.93 420.306 8.874.877 2.811-20.57-8.874-.876zM161.602 299.606l-2.275 8.64 19.195 8.273 3.975-8.766z"/>
    <path style="fill:#407bff" d="M264.149 422.964a3.39 3.39 0 0 0 2.188-.483c.294-.252.446-.633.406-1.018a.68.68 0 0 0-.339-.575c-1.076-.639-4.699 1.078-5.104 1.272a.23.23 0 0 0-.122.216.21.21 0 0 0 .167.175c.921.222 1.859.361 2.804.413zm1.614-1.794a.756.756 0 0 1 .393.088.27.27 0 0 1 .14.233.8.8 0 0 1-.265.674c-.553.468-2.028.505-3.999.121a11.548 11.548 0 0 1 3.76-1.122l-.029.006z"/>
    <path style="fill:#407bff" d="m261.392 422.569.078-.019c1.084-.445 3.247-2.314 3.107-3.33-.058-.233-.186-.541-.773-.621a1.51 1.51 0 0 0-1.194.297c-1.148.894-1.424 3.302-1.441 3.399a.23.23 0 0 0 .051.204.214.214 0 0 0 .172.07zm2.205-3.559.126-.032c.386.059.402.209.405.26.092.616-1.387 2.087-2.495 2.683a4.8 4.8 0 0 1 1.217-2.725c.223-.157.496-.225.767-.191l-.02.005z"/>
    <path style="fill:#263238" d="m257.364 417.604-8.037.333a.7.7 0 0 0-.69.638l-1.918 11.16a1.45 1.45 0 0 0 1.532 1.529c3.488-.181 5.168-.44 9.589-.59 2.709-.091 11.043.89 14.699.048 3.656-.842 3.01-4.508 1.413-4.485-5.142.099-11.071-3.249-14.046-7.167-.441-.335-1.988-1.5-2.542-1.466zM163.406 309.384l4.079-6.933a.699.699 0 0 0-.162-.925l-8.336-7.665a1.451 1.451 0 0 0-2.116.458c-1.74 3.028-2.434 4.58-4.706 8.375-1.392 2.325-6.738 8.794-8.014 12.323-1.276 3.529 2.154 4.974 3.002 3.62 2.706-4.374 8.735-7.539 13.64-7.913.523-.189 2.341-.857 2.613-1.34z"/>
    <path style="opacity:.2" d="m260.615 400.613-1.45 10.603-8.874-.867 1.439-10.603zM188.395 309.887l-4.099 9.253-12.353-5.456 3.151-8.818z"/>
    <path style="fill:#263238" d="M272.226 192.553c5.072 8.615-1.127 15.892-6.301 41.651l-33.426.089c.542-13.882.485-25.105-5.441-52.413a4.61 4.61 0 0 1 4.489-5.605c2.765.003 6.235.099 9.76.458a121.19 121.19 0 0 1 16.551 2.503c4.642 1.116 5.769 1.733 8.706 2.719 1.714.586 3.786 5.263 5.662 10.598z"/>
    <path style="fill:#407bff" d="M267.161 235.943s18.768 54.27 18.314 80.365c-.257 14.95-1.383 42.807-5.894 62.401-3.681 15.988-18.677 26.199-18.677 26.199l-12.029-.712s-6.491-24.399-5.362-34.109c2.246-19.326 8.914-33.85 8.111-51.597-1.284-29.065-9.88-83.013-9.88-83.013l25.417.466z"/>
    <path style="fill:#263238" d="m246.488 407.328 16.947 1.003 1.548-5.094-18.94-1.751z"/>
    <path style="opacity:.2;enable-background:new" d="M248.633 345.58c.021-.025.037-.1.093-.094 10.651 1.042 18.023-14.327 16.257-35.317l-5.654-53.495-10.696 88.906z"/>
    <path style="fill:#407bff" d="M258.744 235.487s14.915 95.431-16.107 106.174c-16.366 6.201-30.14-.523-46.447-7.74-9.428-4.173-21.208-15.46-21.208-15.46l4.528-12.331s10.706-3.476 24.967-1.263c15.903 2.467 16.57 6.965 22.223 3.579 11.877-29.369-8.562-52.578 5.33-73.005l26.714.046z"/>
    <path style="fill:#263238" d="m180.395 303.793-6.052 15.986 4.461 3.409 7.191-19.025z"/>
    <path style="fill:#ffb573" d="M177.899 217.557c-1.513 2.234-9.17.723-9.17.723l-1.625-9.49 9.402 3.769 1.393 4.998z"/>
    <path style="fill:#ffb573" d="m168.985 208.295 1.469 9.861-5.656.847a1.257 1.257 0 0 1-1.333-.98l-2.16-7.063a.648.648 0 0 1 .468-.768l7.212-1.897z"/>
    <path style="fill:#ffb573" d="m166.466 212.772 3.227.571 3.042-2.295-1.177-.84a3.985 3.985 0 0 1-1.574-2.367c-.232-1.029-.387-2.139-.412-3.05l-.01-.342a1.396 1.396 0 0 0-1.179-1.201l-.799.593c-.506 1.092-.145 2.355-.208 3.206l-.127 1.655-1.292.56.509 3.51zM228.673 180.001l-18.919 26.029-34.772 6.828v5.703s32.661 2.422 39.988-1.855c7.327-4.277 19.654-30.164 19.654-30.164l-5.951-6.541z"/>
    <path style="fill:#263238" d="M228.45 129.99c-7.936-2.665-17.148 2.266-20.783 9.807-3.635 7.541-2.358 16.791 1.73 24.097 1.233 2.203 2.707 4.281 3.71 6.598s1.505 4.98.69 7.37c-.815 2.39-1.657 3.922-4.618 3.535 0 0-.036-1.639 1.129-1.44 0 0-2.394 1.332-3.335.46 1.083 1.685 3.991 1.068 4.924-.704 1.397-2.654-1.171-6.242-4.17-6.209-2.999.033-5.436 3.061-5.34 6.059.097 2.998 2.301 5.664 5.038 6.891-1.621.32-3.403-.632-4.037-2.158 1.359 3.562 5.803 5.136 9.551 4.438 3.748-.698 6.923-3.107 9.859-5.538 3.959-3.278 8.091-7.422 7.967-12.56-.092-3.827-2.552-7.119-4.62-10.342-2.067-3.223-3.881-7.17-2.568-10.766 1.114-3.05 4.129-4.89 6.795-6.743 1.919-1.334 5.817-4.306 5.358-7.111-.431-2.629-5.033-4.929-7.28-5.684z"/>
    <path style="fill:#263238" d="m210.56 219.008-5.238-13.868 1.201.099a5.067 5.067 0 0 0 4.847-2.576c3.982-7.12 14.331-25.195 17.242-26.093 4.15-1.23 8.42 2.09 10.03 6.99 1.184 3.613-10.979 19.087-16.624 27.89-4.998 7.795-11.458 7.558-11.458 7.558z"/>
    <path style="fill:#407bff" d="m159.446 313.94-.007.11c.146.393.485.682.896.764.248.08.52.019.711-.158.846-.761.306-3.989.255-4.312a.2.2 0 0 0-.16-.17.223.223 0 0 0-.215.077c-.667.962-1.75 2.671-1.48 3.689zm1.541-3.015c.185 1.283.262 3.021-.203 3.424a.32.32 0 0 1-.324.051.813.813 0 0 1-.602-.496c-.178-.541.197-1.641 1.126-2.948l.003-.031z"/>
    <path style="fill:#407bff" d="M160.967 310.764c.267 1.078 1.28 2.921 2.178 3.134a.75.75 0 0 0 .826-.422c.158-.289.178-.633.056-.938-.408-1.236-2.771-2.258-2.869-2.304a.201.201 0 0 0-.21-.012.242.242 0 0 0-.082.195c.027.118.061.234.101.347zm2.719 1.954a.662.662 0 0 1-.081.526c-.134.233-.264.235-.364.219-.614-.126-1.546-1.634-1.845-2.684.769.386 2.017 1.121 2.263 1.877a.139.139 0 0 0 .027.062zM232.375 232.597l-.924 3.251c-.125.253.17.511.591.506l34.496-.046c.329.02.601-.165.623-.364l.323-3.257c.013-.22-.266-.416-.627-.408l-33.895.042a.652.652 0 0 0-.587.276z"/>
    <path style="opacity:.5;fill:#fff;enable-background:new" d="m232.375 232.597-.924 3.251c-.125.253.17.511.591.506l34.496-.046c.329.02.601-.165.623-.364l.323-3.257c.013-.22-.266-.416-.627-.408l-33.895.042a.652.652 0 0 0-.587.276z"/>
    <path style="fill:#407bff" d="m238.961 236.655-1.002.001c-.19-.011-.345-.101-.328-.22l.451-4.231c.007-.12.183-.22.384-.218l1.002-.011c.19.011.345.101.327.23l-.45 4.221c-.017.119-.194.229-.384.228zM263.867 236.65l-1.002.001c-.19-.011-.345-.1-.328-.22l.45-4.221c.008-.13.184-.23.374-.228l1.002-.001c.19.011.345.101.328.22l-.45 4.221c-.008.13-.174.23-.374.228zM252.461 236.628l-1.002.001c-.19-.011-.345-.101-.328-.22l.45-4.221c.008-.13.184-.229.374-.228l1.002-.001c.19.011.345.101.328.22l-.45 4.221c-.008.129-.174.23-.374.228z"/>
    <path style="fill:#ffb573" d="M242.866 158.534c1.06 5.442 2.1 15.281-1.592 18.248 0 0 1.472 5.587 11.362 7.074 10.922 1.649 5.189-4.571 5.189-4.571-5.941-2.355-5.797-6.654-4.771-10.611l-10.188-10.14z"/>
    <path style="fill:#ffb573" d="M241.308 176.734c5.566.439 10.223.959 15.671 2.18l7.482 2.222c1.334 2.684-.846 8.195-7.111 9.24 0 0-15.771 2.177-20.423-14.062l4.381.42z"/>
    <path style="opacity:.2;enable-background:new" d="m247.019 162.677 6.026 5.997a15.418 15.418 0 0 0-.498 2.835c-2.275-.666-5.933-3.176-6.181-5.575a8.152 8.152 0 0 1 .653-3.257z"/>
    <path style="fill:#ffb573" d="M236.192 151.648c2.674 8.463 3.621 12.105 9.103 15.435 8.189 5.003 18.039-.124 17.906-9.208-.077-8.179-4.428-20.638-13.725-21.97-6.609-.987-12.768 3.57-13.755 10.179a12.095 12.095 0 0 0 .471 5.564z"/>
    <path style="fill:#ed893e" d="M256.375 150.328a19.137 19.137 0 0 0 3.417 4.021 3.129 3.129 0 0 1-2.429.974l-.988-4.995z"/>
    <path style="fill:#263238" d="M255.425 159.845a6.235 6.235 0 0 0 1.013-.19.2.2 0 0 0 .148-.241l-.003-.011a.219.219 0 0 0-.251-.155 5.658 5.658 0 0 1-5.057-1.041.213.213 0 0 0-.289.313 5.999 5.999 0 0 0 4.439 1.325z"/>
    <path style="fill:#407bff" d="M233.282 134.755c-2.211 1.405-3.659 3.941-3.747 6.559-.016.498.017 1.013.232 1.462.215.45.645.823 1.143.85.763.042 1.324-.675 1.742-1.314l1.934-2.959c.632-.967 1.682-2.09 2.025-3.194.625-2.01-2.146-2.155-3.329-1.404z"/>
    <path style="fill:#263238" d="M234.232 136.75c-5.316 6.137-7.688 23.129 7.865 27.866 2.6-2.056-1.599-5.803-3.381-10.546-1.166-3.103 4.759-8.895 7.074-11.267 2.315-2.372 4.436-5.809 7.704-5.259.855.144 1.766.428 2.556.07 2.589-1.173 1.332-2.722.03-3.806-1.914-1.594-4.607-2.316-7.048-2.581-5.414-.587-11.194 1.361-14.8 5.523z"/>
    <path style="fill:#263238" d="M251.504 134.693c6.243 5.208-2.029 5.339-6.372 8.638-4.195 3.168-1.253 8.361-8.341 10.766-5.792 1.695-7.128.677-8.732-.444 0 0 6.564-.826 7.528-8.198.496-3.79 8.772-16.805 15.917-10.762z"/>
    <path style="fill:#ffb573" d="M235.249 158.757a6.532 6.532 0 0 0 4.158 2.701c2.241.393 3.104-1.659 2.33-3.659-.725-1.796-2.758-4.17-4.922-3.657a2.909 2.909 0 0 0-1.566 4.615z"/>
    <path style="fill:#263238" d="M250.428 135.221c1.21 3.077 4.7 2.673 7.285 5.891 1.586 1.967 4.705-4.169.461-6.604-4.244-2.436-9.645-4.108-7.746.713zM246.754 148.219a.412.412 0 0 0 .425-.245c.821-1.827 3.283-2.284 3.306-2.286a.423.423 0 0 0-.156-.83c-.124.017-2.929.589-3.924 2.79a.42.42 0 0 0 .203.558l.002.001.144.012zM259.751 144.542a.411.411 0 0 0 .372-.188.42.42 0 0 0-.109-.584l-.006-.004a4.22 4.22 0 0 0-3.838-.488.424.424 0 1 0 .335.781 3.32 3.32 0 0 1 3.03.42.585.585 0 0 0 .216.063z"/>
    <path style="fill:#407bff" d="m300.861 199.283-5.85 3.33-6.09 13.097s5.881 3.743 10.515.713c4.633-3.03 1.425-17.14 1.425-17.14z"/>
    <path style="opacity:.5;fill:#fff;enable-background:new" d="m300.861 199.283-5.85 3.33-6.09 13.097s5.881 3.743 10.515.713c4.633-3.03 1.425-17.14 1.425-17.14z"/>
    <path style="fill:#407bff" d="m198.389 203.331 6.932 1.96 6.57 13.594s-5.285 4.882-10.995.216c-4.287-3.504-2.507-15.77-2.507-15.77z"/>
    <g style="opacity:.5;enable-background:new">
        <path style="fill:#fff" d="m198.389 203.331 6.932 1.96 6.57 13.594s-5.285 4.882-10.995.216c-4.287-3.504-2.507-15.77-2.507-15.77z"/>
    </g>
    <path style="fill:#263238" d="M259.348 147.931c.48-.09.98.45 1.11 1.19.13.74-.16 1.42-.64 1.5-.48.08-.98-.45-1.11-1.19-.14-.72.16-1.41.64-1.5z"/>
    <path style="fill:#263238" d="m260.828 147.201-1.69.83c1.02.72 1.69-.83 1.69-.83zM250.976 149.645c.48-.09.98.45 1.11 1.19.13.74-.16 1.42-.64 1.5-.48.08-.98-.45-1.11-1.19-.14-.72.16-1.41.64-1.5z"/>
    <path style="fill:#263238" d="m252.456 148.915-1.69.83c1.02.72 1.69-.83 1.69-.83zM208.662 187.91c-.953 0-1.89-.167-2.753-.52-3.098-1.266-4.541-4.493-3.958-8.854a.5.5 0 0 1 .991.133c-.517 3.874.702 6.715 3.347 7.795 2.859 1.169 6.661 0 8.652-2.659 2.505-3.344 1.694-8.083-2.225-13.001-10.239-12.85-9.554-19.684-8.108-25.08 2.102-7.84 8.255-16.825 25.652-15.097a.499.499 0 0 1 .447.547.496.496 0 0 1-.547.448c-16.687-1.662-22.586 6.895-24.586 14.361-1.447 5.397-2.026 11.711 7.923 24.198 6.001 7.531 3.568 12.456 2.244 14.224-1.656 2.21-4.431 3.504-7.079 3.505z"/>
</svg>
